<svg class="path" version="1.1" id="图层_1" xmlns="http://www.w3.org/2000/svg" xmlns:xlink="http://www.w3.org/1999/xlink" x="0px" y="0px"
     viewBox="0 0 360.4 69.8" enable-background="new 0 0 360.4 69.8" xml:space="preserve">
<g>
    <path fill="none" stroke="#000000" stroke-miterlimit="10" d="M11.4,54.6c0-5.7,6.8-10.3,15.2-10.3h8.6
        c14.4,0,26.2-7.8,26.2-17.3v-9h0.1V9.7H4.7V18h45.7v9c0,4.9-6.9,9-15.2,9h-8.6C12.2,36,0.5,44.3,0.5,54.6v14.7h4.2l0,0h119.9v-8.4
        H11.4V54.6z"/>
    <rect x="40.1" y="0.5" fill="none" stroke="#000000" stroke-miterlimit="10" width="21" height="5.6"/>
    <rect x="67.7" y="0.5" fill="none" stroke="#000000" stroke-miterlimit="10" width="23" height="5.6"/>
    <path fill="none" stroke="#000000" stroke-miterlimit="10" d="M117.7,9.7H67.4v4.2l0,0v43.7h10.9V18h39.3
        c8.4,0,15.2,5.2,15.2,11.6v39.7h10.9V29.6C143.8,18.6,132.1,9.7,117.7,9.7z"/>
    <polygon fill="none" stroke="#000000" stroke-miterlimit="10" points="86.9,34.3 113.6,34.3 113.6,48.8 98.2,48.8 98.2,46 
        107.2,46 107.2,37.6 87.3,37.6 87.3,57.1 124.6,57.1 124.6,26 86.9,26     "/>
    <rect x="301.2" y="0.6" fill="none" stroke="#000000" stroke-miterlimit="10" width="22.3" height="5.6"/>
    <polygon fill="none" stroke="#000000" stroke-miterlimit="10" points="183.2,18 198.1,18 204.7,9.7 139.6,9.7 146.4,18 
        172.2,18 172.2,61.2 150.5,61.2 150.5,69.3 237.9,69.3 237.9,61.2 183.2,61.2  "/>
    <path fill="none" stroke="#000000" stroke-miterlimit="10" d="M211.9,26.7c0-6.2,4.7-11.6,10-11.6h4.3v42.8h10.9V15.1h0.2V6.8
        h-15.5c-11.5,0-20.9,8.9-20.9,19.9v15.8h10.9V26.7z"/>
    <polygon fill="none" stroke="#000000" stroke-miterlimit="10" points="284,9.7 257.9,9.7 257.9,3.4 247,3.4 247,18 277.7,18    
        "/>
    <polygon fill="none" stroke="#000000" stroke-miterlimit="10" points="294.1,57.3 294.1,49 257.9,49 257.9,42 294.1,42 
        294.1,33.7 257.9,33.7 257.9,20.8 247,20.8 247,69.3 257.9,69.3 257.9,57.3    "/>
    <path fill="none" stroke="#000000" stroke-miterlimit="10" d="M344.1,9.7h-45.1c-8.7,0-15.8,5.4-15.8,12v8.4h11v-8.4
        c0-2,2.2-3.7,4.9-3.7h45.1c2.7,0,4.9,1.7,4.9,3.7v22h10.9v-22C359.9,15.1,352.8,9.7,344.1,9.7z"/>
    <polygon fill="none" stroke="#000000" stroke-miterlimit="10" points="326.8,57.7 343,57.7 343,49.4 326.8,49.4 326.8,43.7 
        343,43.7 343,32.3 332.1,32.3 332.1,35.4 310.5,35.4 310.5,30.1 343.3,30.1 343.3,21.8 299.5,21.8 299.5,43.7 315.9,43.7 
        315.9,49.4 299.7,49.4 299.7,57.7 315.9,57.7 315.9,61.6 266.8,61.6 266.8,69.3 359.9,69.3 359.9,61.6 326.8,61.6   "/>
</g>
</svg>