<?xml version="1.0" encoding="utf-8"?>
<!-- Generator: Adobe Illustrator 18.1.0, SVG Export Plug-In . SVG Version: 6.00 Build 0)  -->
<!DOCTYPE svg PUBLIC "-//W3C//DTD SVG 1.1//EN" "http://www.w3.org/Graphics/SVG/1.1/DTD/svg11.dtd">
<svg version="1.1" id="图层_1" xmlns="http://www.w3.org/2000/svg" xmlns:xlink="http://www.w3.org/1999/xlink" x="0px" y="0px"
	 viewBox="0 244.6 935.4 106.1" enable-background="new 0 244.6 935.4 106.1" xml:space="preserve">
<g>
	<g>
		<g>
			<polygon fill="#FFFFFF" points="147.2,350.7 0,350.7 0,329 142.9,329 167.8,317.1 167.8,278.2 142.9,265.2 0,265.2 0,244.6 
				147.2,244.6 189.5,264.1 189.5,330.1 			"/>
		</g>
		<g>
			<rect y="286.8" fill="#FFFFFF" width="92" height="20.6"/>
		</g>
	</g>
	<g>
		<rect x="579.2" y="244.6" fill="#FF0000" width="20.6" height="106.1"/>
	</g>
	<g>
		<rect x="541.3" y="244.6" fill="#FF0000" width="20.6" height="106.1"/>
	</g>
	<g>
		<g>
			<rect x="280.4" y="286.8" fill="#FFFFFF" width="71.5" height="20.6"/>
		</g>
		<g>
			<polygon fill="#FFFFFF" points="357.3,350.7 205.7,350.7 205.7,244.6 353,244.6 353,265.2 227.4,265.2 227.4,329 357.3,329 			
				"/>
		</g>
	</g>
	<g>
		<g>
			<polygon fill="#FFFFFF" points="524,350.7 373.5,350.7 373.5,329 503.4,329 503.4,308.5 436.3,308.5 436.3,286.8 524,286.8 			
				"/>
		</g>
		<g>
			<polygon fill="#FFFFFF" points="395.2,309.5 373.5,309.5 373.5,263 413.6,244.6 524,244.6 524,265.2 417.9,265.2 395.2,277.1 			
				"/>
		</g>
	</g>
	<g>
		<polygon fill="#FFFFFF" points="767.6,350.7 648.5,350.7 617.1,335.5 617.1,244.6 718.9,244.6 718.9,265.2 637.7,265.2 
			637.7,322.5 652.9,329 747,329 747,307.4 658.3,307.4 658.3,285.7 767.6,285.7 		"/>
	</g>
	<g>
		<polygon fill="#FFFFFF" points="935.4,350.7 870.5,350.7 829.3,265.2 805.5,265.2 805.5,350.7 783.9,350.7 783.9,244.6 
			842.3,244.6 883.5,329 913.8,329 913.8,244.6 935.4,244.6 		"/>
	</g>
</g>
</svg>
